<svg xmlns="http://www.w3.org/2000/svg" width="18" height="20" viewBox="0 0 18 20"><defs><style>.a{fill:#fff;}</style></defs><path class="a" d="M17.89,18.7l-5.229-5.81A8.432,8.432,0,0,0,14.25,7.917C14.25,3.551,11.054,0,7.125,0S0,3.551,0,7.917s3.2,7.917,7.125,7.917A6.667,6.667,0,0,0,11.6,14.068l5.229,5.81a.349.349,0,0,0,.53,0l.53-.589A.45.45,0,0,0,17.89,18.7ZM7.125,14.167c-3.1,0-5.625-2.8-5.625-6.25s2.523-6.25,5.625-6.25,5.625,2.8,5.625,6.25S10.227,14.167,7.125,14.167Z" transform="translate(0 0)"/></svg>